StickNoBills-Italic.ufo
<glyph name="numbersign" format="1">
  <advance width="888"/>
  <unicode hex="0023"/>
  <outline>
    <contour>
      <point x="578" y="404" type="line"/>
      <point x="473" y="404" type="line"/>
      <point x="435" y="297" type="line"/>
      <point x="541" y="296" type="line"/>
    </contour>
    <contour>
      <point x="339" y="22" type="line"/>
      <point x="218" y="22" type="line"/>
      <point x="272" y="176" type="line"/>
      <point x="132" y="176" type="line"/>
      <point x="178" y="297" type="line"/>
      <point x="315" y="297" type="line"/>
      <point x="352" y="404" type="line"/>
      <point x="206" y="404" type="line"/>
      <point x="250" y="525" type="line"/>
      <point x="396" y="525" type="line"/>
      <point x="450" y="682" type="line"/>
      <point x="571" y="682" type="line"/>
      <point x="515" y="524" type="line"/>
      <point x="621" y="524" type="line"/>
      <point x="676" y="682" type="line"/>
      <point x="797" y="682" type="line"/>
      <point x="741" y="524" type="line"/>
      <point x="879" y="524" type="line"/>
      <point x="839" y="403" type="line"/>
      <point x="699" y="404" type="line"/>
      <point x="661" y="296" type="line"/>
      <point x="804" y="296" type="line"/>
      <point x="765" y="175" type="line"/>
      <point x="619" y="176" type="line"/>
      <point x="565" y="22" type="line"/>
      <point x="445" y="22" type="line"/>
      <point x="498" y="176" type="line"/>
      <point x="393" y="176" type="line"/>
    </contour>
  </outline>
</glyph>
<glyph name="dollar" format="1">
  <advance width="501"/>
  <unicode hex="0024"/>
  <outline>
    <contour>
      <point x="205" y="-47" type="line"/>
      <point x="134" y="-47" type="line"/>
      <point x="144" y="13" type="line"/>
      <point x="81" y="45"/>
      <point x="52" y="116"/>
      <point x="58" y="158" type="curve"/>
      <point x="193" y="203" type="line"/>
      <point x="185" y="147"/>
      <point x="235" y="127"/>
      <point x="235" y="127" type="curve"/>
    </contour>
    <contour>
      <point x="459" y="682" type="line"/>
      <point x="516" y="649"/>
      <point x="541" y="580"/>
      <point x="541" y="553" type="curve"/>
      <point x="403" y="510" type="line"/>
      <point x="406" y="557"/>
      <point x="368" y="568"/>
      <point x="368" y="568" type="curve"/>
      <point x="400" y="750" type="line"/>
      <point x="471" y="750" type="line"/>
    </contour>
    <contour>
      <point x="345" y="750" type="line"/>
      <point x="313" y="568" type="line"/>
      <point x="291" y="562"/>
      <point x="266" y="537"/>
      <point x="262" y="513" type="curve" smooth="yes"/>
      <point x="257" y="486"/>
      <point x="272" y="469"/>
      <point x="293" y="454" type="curve"/>
      <point x="266" y="302" type="line"/>
      <point x="248" y="309"/>
      <point x="232" y="316"/>
      <point x="218" y="323" type="curve" smooth="yes"/>
      <point x="153" y="357"/>
      <point x="109" y="403"/>
      <point x="128" y="508" type="curve" smooth="yes"/>
      <point x="144" y="599"/>
      <point x="206" y="652"/>
      <point x="262" y="679" type="curve"/>
      <point x="274" y="750" type="line"/>
    </contour>
    <contour>
      <point x="343" y="428" type="line"/>
      <point x="367" y="418"/>
      <point x="391" y="407"/>
      <point x="412" y="394" type="curve" smooth="yes"/>
      <point x="467" y="358"/>
      <point x="526" y="311"/>
      <point x="508" y="209" type="curve" smooth="yes"/>
      <point x="493" y="122"/>
      <point x="422" y="44"/>
      <point x="341" y="12" type="curve"/>
      <point x="331" y="-47" type="line"/>
      <point x="260" y="-47" type="line"/>
      <point x="267" y="-3" type="line"/>
      <point x="290" y="127" type="line"/>
      <point x="315" y="130"/>
      <point x="357" y="150"/>
      <point x="366" y="203" type="curve" smooth="yes"/>
      <point x="373" y="241"/>
      <point x="349" y="263"/>
      <point x="317" y="280" type="curve"/>
    </contour>
  </outline>
</glyph>
<glyph name="ampersand" format="1">
  <advance width="687"/>
  <unicode hex="0026"/>
  <outline>
    <contour>
      <point x="440" y="700" type="line"/>
      <point x="544" y="681"/>
      <point x="586" y="618"/>
      <point x="569" y="520" type="curve" smooth="yes"/>
      <point x="556" y="445"/>
      <point x="485" y="383"/>
      <point x="427" y="361" type="curve"/>
      <point x="480" y="280" type="line"/>
      <point x="495" y="299"/>
      <point x="508" y="320"/>
      <point x="516" y="345" type="curve"/>
      <point x="655" y="345" type="line"/>
      <point x="632" y="274"/>
      <point x="599" y="227"/>
      <point x="552" y="180" type="curve"/>
      <point x="664" y="16" type="line"/>
      <point x="467" y="16" type="line"/>
      <point x="430" y="72" type="line"/>
      <point x="402" y="50"/>
      <point x="357" y="26"/>
      <point x="320" y="16" type="curve"/>
      <point x="347" y="168" type="line"/>
      <point x="355" y="173"/>
      <point x="356" y="174"/>
      <point x="364" y="180" type="curve"/>
      <point x="352" y="198" type="line"/>
      <point x="403" y="486" type="line"/>
      <point x="416" y="495"/>
      <point x="433" y="504"/>
      <point x="438" y="533" type="curve" smooth="yes"/>
      <point x="442" y="557"/>
      <point x="441" y="570"/>
      <point x="420" y="582" type="curve"/>
    </contour>
    <contour>
      <point x="359" y="578" type="line"/>
      <point x="332" y="569"/>
      <point x="326" y="536" type="curve" smooth="yes"/>
      <point x="320" y="501"/>
      <point x="338" y="495"/>
      <point x="343" y="489" type="curve"/>
      <point x="304" y="269" type="line"/>
      <point x="285" y="297" type="line"/>
      <point x="256" y="275"/>
      <point x="227" y="251"/>
      <point x="219" y="204" type="curve" smooth="yes"/>
      <point x="211" y="160"/>
      <point x="234" y="135"/>
      <point x="281" y="135" type="curve"/>
      <point x="258" y="3" type="line"/>
      <point x="108" y="3"/>
      <point x="43" y="93"/>
      <point x="64" y="214" type="curve" smooth="yes"/>
      <point x="80" y="306"/>
      <point x="146" y="370"/>
      <point x="222" y="404" type="curve"/>
      <point x="199" y="424"/>
      <point x="180" y="486"/>
      <point x="187" y="528" type="curve" smooth="yes"/>
      <point x="203" y="621"/>
      <point x="273" y="681"/>
      <point x="381" y="702" type="curve"/>
    </contour>
  </outline>
</glyph>
<glyph name="parenleft" format="1">
  <advance width="262"/>
  <unicode hex="0028"/>
  <outline>
    <contour>
      <point x="342" y="735" type="curve"/>
      <point x="327" y="648" type="line"/>
      <point x="284" y="625"/>
      <point x="259" y="593"/>
      <point x="245" y="521" type="curve" smooth="yes"/>
      <point x="190" y="208" type="line" smooth="yes"/>
      <point x="190" y="206"/>
      <point x="189" y="204"/>
      <point x="189" y="202" type="curve" smooth="yes"/>
      <point x="172" y="104"/>
      <point x="191" y="73"/>
      <point x="222" y="51" type="curve"/>
      <point x="206" y="-37" type="line"/>
      <point x="74" y="22"/>
      <point x="66" y="93"/>
      <point x="83" y="189" type="curve" smooth="yes"/>
      <point x="140" y="510" type="line" smooth="yes"/>
      <point x="165" y="652"/>
      <point x="236" y="696"/>
    </contour>
  </outline>
</glyph>
<glyph name="parenright" format="1">
  <advance width="330"/>
  <unicode hex="0029"/>
  <outline>
    <contour>
      <point x="233" y="746" type="line"/>
      <point x="334" y="706"/>
      <point x="395" y="650"/>
      <point x="370" y="510" type="curve" smooth="yes"/>
      <point x="313" y="189" type="line" smooth="yes"/>
      <point x="296" y="93"/>
      <point x="245" y="9"/>
      <point x="93" y="-47" type="curve"/>
      <point x="110" y="51" type="line"/>
      <point x="149" y="73"/>
      <point x="180" y="104"/>
      <point x="197" y="202" type="curve" smooth="yes"/>
      <point x="197" y="204"/>
      <point x="198" y="206"/>
      <point x="198" y="208" type="curve" smooth="yes"/>
      <point x="253" y="521" type="line" smooth="yes"/>
      <point x="265" y="593"/>
      <point x="249" y="626"/>
      <point x="214" y="649" type="curve"/>
    </contour>
  </outline>
</glyph>
<glyph name="asterisk" format="1">
  <advance width="394"/>
  <unicode hex="002A"/>
  <outline>
    <contour>
      <point x="315" y="478" type="line"/>
      <point x="244" y="478" type="line"/>
      <point x="259" y="564" type="line"/>
      <point x="183" y="517" type="line"/>
      <point x="152" y="574" type="line"/>
      <point x="250" y="633" type="line"/>
      <point x="172" y="691" type="line"/>
      <point x="224" y="748" type="line"/>
      <point x="284" y="704" type="line"/>
      <point x="298" y="785" type="line"/>
      <point x="369" y="785" type="line"/>
      <point x="355" y="702" type="line"/>
      <point x="434" y="748" type="line"/>
      <point x="466" y="691" type="line"/>
      <point x="367" y="632" type="line"/>
      <point x="444" y="572" type="line"/>
      <point x="393" y="515" type="line"/>
      <point x="331" y="565" type="line"/>
    </contour>
  </outline>
</glyph>
<glyph name="plus" format="1">
  <advance width="475"/>
  <unicode hex="002B"/>
  <outline>
    <contour>
      <point x="488" y="357" type="line"/>
      <point x="466" y="230" type="line"/>
      <point x="341" y="230" type="line"/>
      <point x="315" y="87" type="line"/>
      <point x="188" y="87" type="line"/>
      <point x="214" y="230" type="line"/>
      <point x="91" y="230" type="line"/>
      <point x="113" y="357" type="line"/>
      <point x="236" y="357" type="line"/>
      <point x="261" y="498" type="line"/>
      <point x="388" y="498" type="line"/>
      <point x="363" y="357" type="line"/>
    </contour>
  </outline>
</glyph>
<glyph name="slash" format="1">
  <advance width="401"/>
  <unicode hex="002F"/>
  <outline>
    <contour>
      <point x="46" y="-23" type="line"/>
      <point x="351" y="716" type="line"/>
      <point x="477" y="716" type="line"/>
      <point x="173" y="-23" type="line"/>
    </contour>
  </outline>
</glyph>
<glyph name="zero" format="1">
  <advance width="516"/>
  <unicode hex="0030"/>
  <outline>
    <contour>
      <point x="350" y="698" type="line"/>
      <point x="438" y="693"/>
      <point x="516" y="602"/>
      <point x="472" y="353" type="curve" smooth="yes"/>
      <point x="420" y="60"/>
      <point x="295" y="3"/>
      <point x="228" y="0" type="curve"/>
      <point x="250" y="124" type="line"/>
      <point x="307" y="137"/>
      <point x="329" y="248"/>
      <point x="345" y="339" type="curve" smooth="yes"/>
      <point x="349" y="360"/>
      <point x="350" y="371"/>
      <point x="355" y="398" type="curve" smooth="yes"/>
      <point x="366" y="461"/>
      <point x="379" y="560"/>
      <point x="328" y="573" type="curve"/>
    </contour>
    <contour>
      <point x="290" y="698" type="curve"/>
      <point x="268" y="573" type="line"/>
      <point x="213" y="560"/>
      <point x="190" y="461"/>
      <point x="179" y="398" type="curve" smooth="yes"/>
      <point x="174" y="371"/>
      <point x="173" y="360"/>
      <point x="169" y="339" type="curve" smooth="yes"/>
      <point x="153" y="248"/>
      <point x="135" y="137"/>
      <point x="188" y="124" type="curve"/>
      <point x="166" y="0" type="line"/>
      <point x="101" y="3"/>
      <point x="-6" y="60"/>
      <point x="46" y="353" type="curve" smooth="yes"/>
      <point x="90" y="602"/>
      <point x="200" y="693"/>
    </contour>
  </outline>
</glyph>
<glyph name="two" format="1">
  <advance width="480"/>
  <unicode hex="0032"/>
  <outline>
    <contour>
      <point x="346" y="574" type="curve"/>
      <point x="368" y="700" type="line" smooth="yes"/>
      <point x="370" y="700"/>
      <point x="373" y="700"/>
      <point x="375" y="700" type="curve" smooth="yes"/>
      <point x="529" y="700"/>
      <point x="554" y="574"/>
      <point x="541" y="497" type="curve" smooth="yes"/>
      <point x="541" y="496"/>
      <point x="540" y="495"/>
      <point x="540" y="494" type="curve" smooth="yes"/>
      <point x="522" y="390"/>
      <point x="467" y="358"/>
      <point x="398" y="315" type="curve" smooth="yes"/>
      <point x="318" y="265"/>
      <point x="272" y="232"/>
      <point x="229" y="179" type="curve"/>
      <point x="77" y="179" type="line"/>
      <point x="159" y="302"/>
      <point x="269" y="359"/>
      <point x="303" y="384" type="curve" smooth="yes"/>
      <point x="353" y="421"/>
      <point x="405" y="433"/>
      <point x="417" y="495" type="curve" smooth="yes"/>
      <point x="417" y="496"/>
      <point x="418" y="496"/>
      <point x="418" y="497" type="curve" smooth="yes"/>
      <point x="427" y="547"/>
      <point x="401" y="572"/>
    </contour>
    <contour>
      <point x="313" y="699" type="curve"/>
      <point x="291" y="573" type="line" smooth="yes"/>
      <point x="290" y="573"/>
      <point x="240" y="557"/>
      <point x="229" y="495" type="curve"/>
      <point x="116" y="520" type="line"/>
      <point x="140" y="604"/>
      <point x="216" y="687"/>
    </contour>
    <contour>
      <point x="469" y="127" type="line"/>
      <point x="447" y="0" type="line"/>
      <point x="43" y="0" type="line"/>
      <point x="65" y="127" type="line"/>
    </contour>
  </outline>
</glyph>
<glyph name="three" format="1">
  <advance width="484"/>
  <unicode hex="0033"/>
  <outline>
    <contour>
      <point x="160" y="160" type="line"/>
      <point x="170" y="139"/>
      <point x="188" y="127"/>
      <point x="217" y="125" type="curve"/>
      <point x="195" y="-1" type="line"/>
      <point x="117" y="-1"/>
      <point x="65" y="30"/>
      <point x="43" y="97" type="curve"/>
    </contour>
    <contour>
      <point x="276" y="122" type="line"/>
      <point x="319" y="122"/>
      <point x="355" y="161"/>
      <point x="362" y="201" type="curve" smooth="yes"/>
      <point x="373" y="261"/>
      <point x="356" y="286"/>
      <point x="238" y="286" type="curve"/>
      <point x="260" y="410" type="line"/>
      <point x="380" y="410"/>
      <point x="404" y="439"/>
      <point x="415" y="499" type="curve" smooth="yes"/>
      <point x="425" y="553"/>
      <point x="387" y="574"/>
      <point x="357" y="574" type="curve" smooth="yes"/>
      <point x="356" y="574"/>
      <point x="354" y="574"/>
      <point x="353" y="574" type="curve" smooth="yes"/>
      <point x="375" y="698" type="line"/>
      <point x="508" y="695"/>
      <point x="556" y="582"/>
      <point x="543" y="508" type="curve" smooth="yes"/>
      <point x="526" y="411"/>
      <point x="487" y="366"/>
      <point x="453" y="350" type="curve"/>
      <point x="478" y="331"/>
      <point x="508" y="284"/>
      <point x="493" y="199" type="curve" smooth="yes"/>
      <point x="471" y="75"/>
      <point x="337" y="0"/>
      <point x="257" y="0" type="curve" smooth="yes"/>
      <point x="256" y="0"/>
      <point x="256" y="0"/>
      <point x="255" y="0" type="curve" smooth="yes"/>
    </contour>
    <contour>
      <point x="227" y="537" type="curve"/>
      <point x="132" y="600" type="line"/>
      <point x="175" y="656"/>
      <point x="240" y="698"/>
      <point x="318" y="698" type="curve"/>
      <point x="296" y="572" type="line"/>
      <point x="267" y="570"/>
      <point x="245" y="558"/>
    </contour>
  </outline>
</glyph>
<glyph name="four" format="1">
  <advance width="483"/>
  <unicode hex="0034"/>
  <outline>
    <contour>
      <point x="505" y="272" type="line"/>
      <point x="483" y="145" type="line"/>
      <point x="429" y="145" type="line"/>
      <point x="403" y="0" type="line"/>
      <point x="273" y="0" type="line"/>
      <point x="397" y="701" type="line"/>
      <point x="527" y="701" type="line"/>
      <point x="451" y="272" type="line"/>
    </contour>
    <contour>
      <point x="264" y="272" type="line"/>
      <point x="242" y="145" type="line"/>
      <point x="52" y="145" type="line"/>
      <point x="74" y="272" type="line"/>
      <point x="321" y="598" type="line"/>
      <point x="278" y="351" type="line"/>
      <point x="218" y="272" type="line"/>
    </contour>
  </outline>
</glyph>
<glyph name="six" format="1">
  <advance width="497"/>
  <unicode hex="0036"/>
  <outline>
    <contour>
      <point x="351" y="697" type="curve"/>
      <point x="329" y="572" type="line"/>
      <point x="265" y="565"/>
      <point x="229" y="448"/>
      <point x="220" y="399" type="curve"/>
      <point x="242" y="414"/>
      <point x="273" y="425"/>
      <point x="303" y="425" type="curve"/>
      <point x="282" y="307" type="line"/>
      <point x="281" y="307" type="line"/>
      <point x="260" y="302"/>
      <point x="211" y="286"/>
      <point x="197" y="209" type="curve" smooth="yes"/>
      <point x="190" y="170"/>
      <point x="213" y="128"/>
      <point x="250" y="124" type="curve"/>
      <point x="228" y="-1" type="line"/>
      <point x="53" y="-1"/>
      <point x="59" y="186"/>
      <point x="89" y="358" type="curve" smooth="yes"/>
      <point x="110" y="475"/>
      <point x="174" y="675"/>
    </contour>
    <contour>
      <point x="450" y="537" type="line"/>
      <point x="438" y="559"/>
      <point x="422" y="573"/>
      <point x="394" y="573" type="curve" smooth="yes"/>
      <point x="390" y="573"/>
      <point x="387" y="573"/>
      <point x="383" y="573" type="curve" smooth="yes"/>
      <point x="405" y="698" type="line"/>
      <point x="483" y="698"/>
      <point x="531" y="659"/>
      <point x="556" y="600" type="curve"/>
    </contour>
    <contour>
      <point x="357" y="425" type="line"/>
      <point x="481" y="425"/>
      <point x="529" y="327"/>
      <point x="508" y="209" type="curve" smooth="yes"/>
      <point x="486" y="84"/>
      <point x="383" y="0"/>
      <point x="282" y="-1" type="curve"/>
      <point x="304" y="123" type="line"/>
      <point x="340" y="127"/>
      <point x="384" y="159"/>
      <point x="393" y="208" type="curve" smooth="yes"/>
      <point x="407" y="290"/>
      <point x="355" y="304"/>
      <point x="337" y="309" type="curve"/>
    </contour>
  </outline>
</glyph>
<glyph name="colon" format="1">
  <advance width="250"/>
  <unicode hex="003A"/>
  <outline>
    <contour>
      <point x="113" y="360" type="curve" smooth="yes"/>
      <point x="120" y="402"/>
      <point x="160" y="436"/>
      <point x="202" y="436" type="curve" smooth="yes"/>
      <point x="244" y="436"/>
      <point x="270" y="402"/>
      <point x="263" y="360" type="curve" smooth="yes"/>
      <point x="256" y="318"/>
      <point x="217" y="285"/>
      <point x="175" y="285" type="curve" smooth="yes"/>
      <point x="133" y="285"/>
      <point x="106" y="318"/>
    </contour>
    <contour>
      <point x="62" y="70" type="curve" smooth="yes"/>
      <point x="69" y="112"/>
      <point x="109" y="146"/>
      <point x="151" y="146" type="curve" smooth="yes"/>
      <point x="193" y="146"/>
      <point x="219" y="112"/>
      <point x="212" y="70" type="curve" smooth="yes"/>
      <point x="205" y="28"/>
      <point x="166" y="-5"/>
      <point x="124" y="-5" type="curve" smooth="yes"/>
      <point x="82" y="-5"/>
      <point x="55" y="28"/>
    </contour>
  </outline>
</glyph>
<glyph name="semicolon" format="1">
  <advance width="291"/>
  <unicode hex="003B"/>
  <outline>
    <contour>
      <point x="173" y="-23" type="line"/>
      <point x="46" y="-23" type="line"/>
      <point x="110" y="129" type="line"/>
      <point x="237" y="129" type="line"/>
    </contour>
    <contour>
      <point x="154" y="360" type="curve" smooth="yes"/>
      <point x="161" y="402"/>
      <point x="201" y="436"/>
      <point x="243" y="436" type="curve" smooth="yes"/>
      <point x="285" y="436"/>
      <point x="311" y="402"/>
      <point x="304" y="360" type="curve" smooth="yes"/>
      <point x="297" y="318"/>
      <point x="258" y="285"/>
      <point x="216" y="285" type="curve" smooth="yes"/>
      <point x="174" y="285"/>
      <point x="147" y="318"/>
    </contour>
  </outline>
</glyph>
<glyph name="equal" format="1">
  <advance width="418"/>
  <unicode hex="003D"/>
  <outline>
    <contour>
      <point x="448" y="452" type="line"/>
      <point x="425" y="325" type="line"/>
      <point x="107" y="325" type="line"/>
      <point x="130" y="452" type="line"/>
    </contour>
    <contour>
      <point x="413" y="258" type="line"/>
      <point x="391" y="131" type="line"/>
      <point x="73" y="131" type="line"/>
      <point x="95" y="258" type="line"/>
    </contour>
  </outline>
</glyph>
<glyph name="C" format="1">
  <advance width="494"/>
  <unicode hex="0043"/>
  <outline>
    <contour>
      <point x="353" y="705" type="curve"/>
      <point x="328" y="564" type="line"/>
      <point x="282" y="563"/>
      <point x="265" y="523"/>
      <point x="264" y="518" type="curve" smooth="yes"/>
      <point x="205" y="181" type="line" smooth="yes"/>
      <point x="204" y="176"/>
      <point x="207" y="136"/>
      <point x="253" y="136" type="curve"/>
      <point x="228" y="-5" type="line"/>
      <point x="85" y="-5"/>
      <point x="53" y="121"/>
      <point x="64" y="181" type="curve" smooth="yes"/>
      <point x="123" y="518" type="line" smooth="yes"/>
      <point x="134" y="578"/>
      <point x="210" y="705"/>
    </contour>
    <contour>
      <point x="307" y="136" type="line"/>
      <point x="340" y="143"/>
      <point x="354" y="166" type="curve" smooth="yes"/>
      <point x="361" y="178"/>
      <point x="364" y="189"/>
      <point x="366" y="203" type="curve" smooth="yes"/>
      <point x="368" y="215" type="line"/>
      <point x="500" y="182" type="line"/>
      <point x="481" y="76"/>
      <point x="374" y="-5"/>
      <point x="282" y="-5" type="curve"/>
    </contour>
    <contour>
      <point x="382" y="564" type="line"/>
      <point x="407" y="705" type="line"/>
      <point x="499" y="705"/>
      <point x="576" y="612"/>
      <point x="559" y="516" type="curve"/>
      <point x="415" y="480" type="line"/>
      <point x="417" y="495" type="line" smooth="yes"/>
      <point x="419" y="509"/>
      <point x="422" y="520"/>
      <point x="419" y="532" type="curve" smooth="yes"/>
      <point x="413" y="555"/>
    </contour>
  </outline>
</glyph>
<glyph name="G" format="1">
  <advance width="493"/>
  <unicode hex="0047"/>
  <outline>
    <contour>
      <point x="221" y="-5" type="line"/>
      <point x="161" y="-5"/>
      <point x="35" y="48"/>
      <point x="60" y="192" type="curve" smooth="yes"/>
      <point x="118" y="524" type="line"/>
      <point x="137" y="589"/>
      <point x="214" y="705"/>
      <point x="346" y="705" type="curve"/>
      <point x="321" y="564" type="line"/>
      <point x="275" y="563"/>
      <point x="258" y="513"/>
      <point x="257" y="508" type="curve" smooth="yes"/>
      <point x="201" y="192" type="line" smooth="yes"/>
      <point x="194" y="146"/>
      <point x="241" y="136"/>
      <point x="246" y="136" type="curve"/>
    </contour>
    <contour>
      <point x="523" y="353" type="line"/>
      <point x="492" y="176" type="line" smooth="yes"/>
      <point x="478" y="95"/>
      <point x="357" y="-4"/>
      <point x="275" y="-5" type="curve"/>
      <point x="300" y="136" type="line"/>
      <point x="306" y="136"/>
      <point x="347" y="155"/>
      <point x="353" y="190" type="curve" smooth="yes"/>
      <point x="358" y="223" type="line"/>
      <point x="315" y="223" type="line"/>
      <point x="338" y="353" type="line"/>
    </contour>
    <contour>
      <point x="375" y="564" type="line"/>
      <point x="400" y="705" type="line"/>
      <point x="493" y="705"/>
      <point x="569" y="612"/>
      <point x="552" y="516" type="curve"/>
      <point x="405" y="465" type="line"/>
      <point x="410" y="495" type="line" smooth="yes"/>
      <point x="412" y="509"/>
      <point x="415" y="520"/>
      <point x="412" y="532" type="curve" smooth="yes"/>
      <point x="406" y="555"/>
    </contour>
  </outline>
</glyph>
<glyph name="H" format="1">
  <advance width="458"/>
  <unicode hex="0048"/>
  <outline>
    <contour>
      <point x="408" y="700" type="line"/>
      <point x="549" y="700" type="line"/>
      <point x="426" y="0" type="line"/>
      <point x="285" y="0" type="line"/>
      <point x="335" y="283" type="line"/>
      <point x="306" y="283" type="line"/>
      <point x="330" y="421" type="line"/>
      <point x="359" y="421" type="line"/>
    </contour>
    <contour>
      <point x="276" y="421" type="line"/>
      <point x="252" y="283" type="line"/>
      <point x="223" y="283" type="line"/>
      <point x="173" y="0" type="line"/>
      <point x="32" y="0" type="line"/>
      <point x="155" y="700" type="line"/>
      <point x="296" y="700" type="line"/>
      <point x="247" y="421" type="line"/>
    </contour>
  </outline>
</glyph>
<glyph name="R" format="1">
  <advance width="495"/>
  <unicode hex="0052"/>
  <outline>
    <contour>
      <point x="155" y="700" type="line"/>
      <point x="296" y="700" type="line"/>
      <point x="173" y="0" type="line"/>
      <point x="32" y="0" type="line"/>
    </contour>
    <contour>
      <point x="299" y="411" type="line"/>
      <point x="312" y="411" type="line" smooth="yes"/>
      <point x="372" y="411"/>
      <point x="405" y="447"/>
      <point x="412" y="488" type="curve" smooth="yes"/>
      <point x="420" y="536"/>
      <point x="389" y="567"/>
      <point x="340" y="567" type="curve" smooth="yes"/>
      <point x="327" y="567" type="line"/>
      <point x="350" y="700" type="line"/>
      <point x="500" y="700"/>
      <point x="561" y="616"/>
      <point x="540" y="496" type="curve" smooth="yes"/>
      <point x="528" y="428"/>
      <point x="499" y="381"/>
      <point x="448" y="352" type="curve"/>
      <point x="479" y="325"/>
      <point x="495" y="266"/>
      <point x="490" y="217" type="curve" smooth="yes"/>
      <point x="469" y="0" type="line"/>
      <point x="343" y="0" type="line"/>
      <point x="359" y="178" type="line" smooth="yes"/>
      <point x="366" y="257"/>
      <point x="348" y="285"/>
      <point x="277" y="286" type="curve"/>
    </contour>
  </outline>
</glyph>
<glyph name="S" format="1">
  <advance width="497"/>
  <unicode hex="0053"/>
  <outline>
    <contour>
      <point x="215" y="-3" type="line"/>
      <point x="106" y="-3"/>
      <point x="52" y="103"/>
      <point x="61" y="158" type="curve"/>
      <point x="196" y="203" type="line"/>
      <point x="188" y="147"/>
      <point x="238" y="127" type="line"/>
    </contour>
    <contour>
      <point x="394" y="700" type="line"/>
      <point x="500" y="700"/>
      <point x="544" y="589"/>
      <point x="544" y="553" type="curve"/>
      <point x="406" y="510" type="line"/>
      <point x="409" y="557"/>
      <point x="371" y="568" type="line"/>
    </contour>
    <contour>
      <point x="339" y="700" type="curve"/>
      <point x="316" y="568" type="line"/>
      <point x="294" y="562"/>
      <point x="269" y="537"/>
      <point x="265" y="513" type="curve" smooth="yes"/>
      <point x="253" y="446"/>
      <point x="355" y="434"/>
      <point x="415" y="394" type="curve" smooth="yes"/>
      <point x="470" y="358"/>
      <point x="529" y="311"/>
      <point x="511" y="209" type="curve" smooth="yes"/>
      <point x="491" y="96"/>
      <point x="378" y="-3"/>
      <point x="270" y="-3" type="curve"/>
      <point x="293" y="127" type="line"/>
      <point x="318" y="130"/>
      <point x="360" y="150"/>
      <point x="369" y="203" type="curve" smooth="yes"/>
      <point x="382" y="278"/>
      <point x="276" y="294"/>
      <point x="221" y="323" type="curve" smooth="yes"/>
      <point x="156" y="357"/>
      <point x="112" y="403"/>
      <point x="131" y="508" type="curve" smooth="yes"/>
      <point x="156" y="647"/>
      <point x="288" y="699"/>
    </contour>
  </outline>
</glyph>
<glyph name="V" format="1">
  <advance width="508"/>
  <unicode hex="0056"/>
  <outline>
    <contour>
      <point x="605" y="700" type="line"/>
      <point x="542" y="569"/>
      <point x="477" y="430"/>
      <point x="410" y="290" type="curve"/>
      <point x="400" y="290" type="line"/>
      <point x="374" y="514" type="line"/>
      <point x="461" y="700" type="line"/>
    </contour>
    <contour>
      <point x="149" y="700" type="line"/>
      <point x="293" y="700" type="line"/>
      <point x="357" y="158" type="line"/>
      <point x="276" y="0" type="line"/>
      <point x="229" y="0" type="line"/>
    </contour>
  </outline>
</glyph>
<glyph name="X" format="1">
  <advance width="464"/>
  <unicode hex="0058"/>
  <outline>
    <contour>
      <point x="549" y="700" type="line"/>
      <point x="366" y="361" type="line"/>
      <point x="438" y="0" type="line"/>
      <point x="293" y="0" type="line"/>
      <point x="261" y="167" type="line"/>
      <point x="171" y="0" type="line"/>
      <point x="26" y="0" type="line"/>
      <point x="226" y="361" type="line"/>
      <point x="161" y="700" type="line"/>
      <point x="298" y="700" type="line"/>
      <point x="329" y="548" type="line"/>
      <point x="412" y="700" type="line"/>
    </contour>
  </outline>
</glyph>
<glyph name="bracketleft" format="1">
  <advance width="258"/>
  <unicode hex="005B"/>
  <outline>
    <contour>
      <point x="374" y="739" type="line"/>
      <point x="355" y="629" type="line"/>
      <point x="294" y="629" type="line"/>
      <point x="193" y="74" type="line"/>
      <point x="257" y="74" type="line"/>
      <point x="238" y="-36" type="line"/>
      <point x="44" y="-36" type="line"/>
      <point x="180" y="739" type="line"/>
    </contour>
  </outline>
</glyph>
<glyph name="backslash" format="1">
  <advance width="401"/>
  <unicode hex="005C"/>
  <outline>
    <contour>
      <point x="484" y="-23" type="line"/>
      <point x="357" y="-23" type="line"/>
      <point x="53" y="716" type="line"/>
      <point x="179" y="716" type="line"/>
    </contour>
  </outline>
</glyph>
<glyph name="bracketright" format="1">
  <advance width="258"/>
  <unicode hex="005D"/>
  <outline>
    <contour>
      <point x="144" y="739" type="line"/>
      <point x="338" y="739" type="line"/>
      <point x="202" y="-36" type="line"/>
      <point x="8" y="-36" type="line"/>
      <point x="27" y="74" type="line"/>
      <point x="91" y="74" type="line"/>
      <point x="186" y="629" type="line"/>
      <point x="125" y="629" type="line"/>
    </contour>
  </outline>
</glyph>
<glyph name="asciicircum" format="1">
  <advance width="374"/>
  <unicode hex="005E"/>
  <outline>
    <contour>
      <point x="108" y="460" type="line"/>
      <point x="309" y="756" type="line"/>
      <point x="397" y="756" type="line"/>
      <point x="494" y="460" type="line"/>
      <point x="371" y="460" type="line"/>
      <point x="325" y="603" type="line"/>
      <point x="230" y="460" type="line"/>
    </contour>
  </outline>
</glyph>
<glyph name="grave" format="1">
  <advance width="263"/>
  <unicode hex="0060"/>
  <outline>
    <contour>
      <point x="229" y="605" type="line"/>
      <point x="182" y="757" type="line"/>
      <point x="309" y="757" type="line"/>
      <point x="320" y="605" type="line"/>
    </contour>
  </outline>
</glyph>
<glyph name="a" format="1">
  <advance width="435"/>
  <unicode hex="0061"/>
  <outline>
    <contour>
      <point x="253" y="407" type="line"/>
      <point x="250" y="407" type="line" smooth="yes"/>
      <point x="227" y="405"/>
      <point x="207" y="390"/>
      <point x="200" y="353" type="curve"/>
      <point x="200" y="349" type="line"/>
      <point x="102" y="389" type="line"/>
      <point x="102" y="391" type="line"/>
      <point x="115" y="462"/>
      <point x="202" y="519"/>
      <point x="270" y="519" type="curve" smooth="yes"/>
      <point x="273" y="519" type="line"/>
    </contour>
    <contour>
      <point x="320" y="519" type="line"/>
      <point x="323" y="519" type="line" smooth="yes"/>
      <point x="426" y="519"/>
      <point x="459" y="424"/>
      <point x="451" y="380" type="curve" smooth="yes"/>
      <point x="409" y="143" type="line" smooth="yes"/>
      <point x="408" y="138"/>
      <point x="406" y="114"/>
      <point x="427" y="114" type="curve" smooth="yes"/>
      <point x="430" y="114" type="line"/>
      <point x="410" y="1" type="line"/>
      <point x="407" y="1" type="line" smooth="yes"/>
      <point x="370" y="1"/>
      <point x="343" y="13"/>
      <point x="326" y="30" type="curve"/>
      <point x="300" y="12"/>
      <point x="268" y="1"/>
      <point x="232" y="1" type="curve" smooth="yes"/>
      <point x="229" y="1" type="line"/>
      <point x="249" y="113" type="line"/>
      <point x="252" y="113" type="line" smooth="yes"/>
      <point x="282" y="114"/>
      <point x="293" y="146"/>
      <point x="294" y="149" type="curve" smooth="yes"/>
      <point x="308" y="227" type="line"/>
      <point x="266" y="205"/>
      <point x="186" y="190"/>
      <point x="171" y="183" type="curve" smooth="yes"/>
      <point x="164" y="180"/>
      <point x="158" y="173"/>
      <point x="156" y="162" type="curve" smooth="yes"/>
      <point x="153" y="149" type="line" smooth="yes"/>
      <point x="149" y="129"/>
      <point x="157" y="113"/>
      <point x="183" y="113" type="curve" smooth="yes"/>
      <point x="200" y="113" type="line"/>
      <point x="180" y="1" type="line"/>
      <point x="83" y="1"/>
      <point x="37" y="64"/>
      <point x="47" y="121" type="curve" smooth="yes"/>
      <point x="55" y="167" type="line" smooth="yes"/>
      <point x="61" y="200"/>
      <point x="74" y="233"/>
      <point x="120" y="257" type="curve" smooth="yes"/>
      <point x="167" y="282"/>
      <point x="323" y="311"/>
      <point x="330" y="351" type="curve" smooth="yes"/>
      <point x="331" y="355"/>
      <point x="331" y="359"/>
      <point x="332" y="363" type="curve" smooth="yes"/>
      <point x="336" y="387"/>
      <point x="337" y="404"/>
      <point x="303" y="407" type="curve"/>
      <point x="300" y="408" type="line"/>
    </contour>
  </outline>
</glyph>
<glyph name="b" format="1">
  <advance width="414"/>
  <unicode hex="0062"/>
  <outline>
    <contour>
      <point x="336" y="373" type="line" smooth="yes"/>
      <point x="336" y="375"/>
      <point x="334" y="397"/>
      <point x="307" y="398" type="curve" smooth="yes"/>
      <point x="273" y="398" type="line"/>
      <point x="294" y="516" type="line"/>
      <point x="327" y="516" type="line" smooth="yes"/>
      <point x="429" y="516"/>
      <point x="461" y="422"/>
      <point x="454" y="377" type="curve" smooth="yes"/>
      <point x="413" y="141" type="line" smooth="yes"/>
      <point x="405" y="97"/>
      <point x="339" y="0"/>
      <point x="236" y="0" type="curve" smooth="yes"/>
      <point x="203" y="0" type="line"/>
      <point x="224" y="118" type="line"/>
      <point x="257" y="118" type="line" smooth="yes"/>
      <point x="285" y="118"/>
      <point x="295" y="142"/>
      <point x="295" y="143" type="curve" smooth="yes"/>
    </contour>
    <contour>
      <point x="30" y="0" type="line"/>
      <point x="153" y="699" type="line"/>
      <point x="278" y="699" type="line"/>
      <point x="155" y="0" type="line"/>
    </contour>
  </outline>
</glyph>
<glyph name="c" format="1">
  <advance width="418"/>
  <unicode hex="0063"/>
  <outline>
    <contour>
      <point x="96" y="377" type="line" smooth="yes"/>
      <point x="105" y="421"/>
      <point x="171" y="516"/>
      <point x="276" y="516" type="curve" smooth="yes"/>
      <point x="282" y="516" type="line"/>
      <point x="262" y="400" type="line"/>
      <point x="256" y="400" type="line" smooth="yes"/>
      <point x="225" y="400"/>
      <point x="215" y="377"/>
      <point x="215" y="375" type="curve" smooth="yes"/>
      <point x="174" y="141" type="line" smooth="yes"/>
      <point x="174" y="139"/>
      <point x="174" y="115"/>
      <point x="214" y="115" type="curve"/>
      <point x="219" y="114" type="line"/>
      <point x="199" y="0" type="line"/>
      <point x="194" y="0" type="line" smooth="yes"/>
      <point x="79" y="0"/>
      <point x="47" y="97"/>
      <point x="55" y="141" type="curve" smooth="yes"/>
    </contour>
    <contour>
      <point x="243" y="-1" type="line"/>
      <point x="263" y="116" type="line"/>
      <point x="269" y="116" type="line" smooth="yes"/>
      <point x="271" y="116"/>
      <point x="293" y="119"/>
      <point x="300" y="132" type="curve" smooth="yes"/>
      <point x="305" y="140"/>
      <point x="307" y="146"/>
      <point x="309" y="156" type="curve" smooth="yes"/>
      <point x="314" y="186" type="line"/>
      <point x="417" y="144" type="line"/>
      <point x="417" y="140" type="line"/>
      <point x="404" y="68"/>
      <point x="323" y="-1"/>
      <point x="250" y="-1" type="curve" smooth="yes"/>
    </contour>
    <contour>
      <point x="334" y="383" type="curve" smooth="yes"/>
      <point x="331" y="397"/>
      <point x="309" y="399"/>
      <point x="309" y="399" type="curve" smooth="yes"/>
      <point x="308" y="399"/>
      <point x="307" y="399"/>
      <point x="306" y="399" type="curve" smooth="yes"/>
      <point x="303" y="399" type="line"/>
      <point x="324" y="516" type="line"/>
      <point x="330" y="516" type="line" smooth="yes"/>
      <point x="403" y="516"/>
      <point x="460" y="448"/>
      <point x="447" y="376" type="curve"/>
      <point x="447" y="372" type="line"/>
      <point x="328" y="330" type="line"/>
      <point x="333" y="360" type="line" smooth="yes"/>
      <point x="335" y="370"/>
      <point x="337" y="375"/>
    </contour>
  </outline>
</glyph>
<glyph name="m" format="1">
  <advance width="684"/>
  <unicode hex="006D"/>
  <outline>
    <contour>
      <point x="280" y="0" type="line"/>
      <point x="346" y="372" type="line" smooth="yes"/>
      <point x="347" y="375"/>
      <point x="343" y="398"/>
      <point x="313" y="398" type="curve" smooth="yes"/>
      <point x="307" y="398" type="line"/>
      <point x="329" y="519" type="line"/>
      <point x="335" y="519" type="line" smooth="yes"/>
      <point x="377" y="519"/>
      <point x="406" y="505"/>
      <point x="428" y="486" type="curve"/>
      <point x="457" y="506"/>
      <point x="491" y="519"/>
      <point x="533" y="519" type="curve" smooth="yes"/>
      <point x="539" y="519" type="line"/>
      <point x="517" y="398" type="line"/>
      <point x="511" y="398" type="line" smooth="yes"/>
      <point x="480" y="398"/>
      <point x="470" y="374"/>
      <point x="470" y="372" type="curve" smooth="yes"/>
      <point x="404" y="0" type="line"/>
    </contour>
    <contour>
      <point x="596" y="372" type="line" smooth="yes"/>
      <point x="597" y="375"/>
      <point x="594" y="398"/>
      <point x="564" y="398" type="curve" smooth="yes"/>
      <point x="558" y="398" type="line"/>
      <point x="580" y="519" type="line"/>
      <point x="586" y="519" type="line" smooth="yes"/>
      <point x="692" y="519"/>
      <point x="728" y="422"/>
      <point x="720" y="377" type="curve" smooth="yes"/>
      <point x="654" y="0" type="line"/>
      <point x="530" y="0" type="line"/>
    </contour>
    <contour>
      <point x="220" y="372" type="curve" smooth="yes"/>
      <point x="154" y="0" type="line"/>
      <point x="30" y="0" type="line"/>
      <point x="96" y="377" type="line" smooth="yes"/>
      <point x="104" y="425"/>
      <point x="176" y="519"/>
      <point x="281" y="519" type="curve" smooth="yes"/>
      <point x="287" y="519" type="line"/>
      <point x="265" y="398" type="line"/>
      <point x="259" y="398" type="line" smooth="yes"/>
      <point x="229" y="398"/>
      <point x="220" y="374"/>
    </contour>
  </outline>
</glyph>
<glyph name="n" format="1">
  <advance width="434"/>
  <unicode hex="006E"/>
  <outline>
    <contour>
      <point x="220" y="372" type="curve" smooth="yes"/>
      <point x="154" y="0" type="line"/>
      <point x="30" y="0" type="line"/>
      <point x="96" y="377" type="line" smooth="yes"/>
      <point x="104" y="425"/>
      <point x="176" y="519"/>
      <point x="283" y="519" type="curve" smooth="yes"/>
      <point x="288" y="519" type="line"/>
      <point x="266" y="398" type="line"/>
      <point x="261" y="398" type="line" smooth="yes"/>
      <point x="230" y="398"/>
      <point x="220" y="374"/>
    </contour>
    <contour>
      <point x="346" y="372" type="line" smooth="yes"/>
      <point x="347" y="375"/>
      <point x="343" y="398"/>
      <point x="313" y="398" type="curve" smooth="yes"/>
      <point x="308" y="398" type="line"/>
      <point x="330" y="519" type="line"/>
      <point x="335" y="519" type="line" smooth="yes"/>
      <point x="442" y="519"/>
      <point x="478" y="422"/>
      <point x="470" y="377" type="curve" smooth="yes"/>
      <point x="404" y="0" type="line"/>
      <point x="280" y="0" type="line"/>
    </contour>
  </outline>
</glyph>
<glyph name="r" format="1">
  <advance width="316"/>
  <unicode hex="0072"/>
  <outline>
    <contour>
      <point x="127" y="516" type="line"/>
      <point x="251" y="516" type="line"/>
      <point x="240" y="454" type="line"/>
      <point x="266" y="481"/>
      <point x="320" y="516"/>
      <point x="375" y="516" type="curve" smooth="yes"/>
      <point x="385" y="516" type="line"/>
      <point x="359" y="395" type="line"/>
      <point x="292" y="394"/>
      <point x="219" y="331"/>
      <point x="208" y="271" type="curve" smooth="yes"/>
      <point x="160" y="0" type="line"/>
      <point x="36" y="0" type="line"/>
    </contour>
  </outline>
</glyph>
<glyph name="u" format="1">
  <advance width="434"/>
  <unicode hex="0075"/>
  <outline>
    <contour>
      <point x="121" y="514" type="line"/>
      <point x="245" y="514" type="line"/>
      <point x="179" y="142" type="line" smooth="yes"/>
      <point x="178" y="139"/>
      <point x="180" y="116"/>
      <point x="211" y="116" type="curve" smooth="yes"/>
      <point x="216" y="116" type="line"/>
      <point x="195" y="-5" type="line"/>
      <point x="190" y="-5" type="line" smooth="yes"/>
      <point x="83" y="-5"/>
      <point x="46" y="89"/>
      <point x="54" y="137" type="curve" smooth="yes"/>
    </contour>
    <contour>
      <point x="258" y="116" type="line"/>
      <point x="263" y="116" type="line" smooth="yes"/>
      <point x="294" y="116"/>
      <point x="305" y="140"/>
      <point x="305" y="142" type="curve" smooth="yes"/>
      <point x="371" y="514" type="line"/>
      <point x="495" y="514" type="line"/>
      <point x="428" y="137" type="line" smooth="yes"/>
      <point x="420" y="92"/>
      <point x="349" y="-5"/>
      <point x="242" y="-5" type="curve" smooth="yes"/>
      <point x="237" y="-5" type="line"/>
    </contour>
  </outline>
</glyph>
<glyph name="v" format="1">
  <advance width="400"/>
  <unicode hex="0076"/>
  <outline>
    <contour>
      <point x="360" y="516" type="line"/>
      <point x="491" y="515" type="line"/>
      <point x="345" y="208" type="line"/>
      <point x="333" y="208" type="line"/>
      <point x="301" y="394" type="line"/>
    </contour>
    <contour>
      <point x="174" y="0" type="line"/>
      <point x="107" y="515" type="line"/>
      <point x="242" y="516" type="line"/>
      <point x="307" y="120" type="line"/>
      <point x="243" y="0" type="line"/>
    </contour>
  </outline>
</glyph>
<glyph name="braceleft" format="1">
  <advance width="407"/>
  <unicode hex="007B"/>
  <outline>
    <contour>
      <point x="437" y="735" type="curve"/>
      <point x="419" y="635" type="line"/>
      <point x="351" y="635"/>
      <point x="345" y="591"/>
      <point x="322" y="469" type="curve" smooth="yes"/>
      <point x="307" y="383" type="line" smooth="yes"/>
      <point x="304" y="366"/>
      <point x="281" y="354"/>
      <point x="256" y="348" type="curve"/>
      <point x="280" y="340"/>
      <point x="297" y="325"/>
      <point x="293" y="304" type="curve" smooth="yes"/>
      <point x="276" y="207" type="line" smooth="yes"/>
      <point x="255" y="86"/>
      <point x="264" y="61"/>
      <point x="318" y="61" type="curve"/>
      <point x="300" y="-38" type="line"/>
      <point x="294" y="-38"/>
      <point x="288" y="-38"/>
      <point x="282" y="-38" type="curve" smooth="yes"/>
      <point x="193" y="-38"/>
      <point x="107" y="-31"/>
      <point x="146" y="192" type="curve" smooth="yes"/>
      <point x="163" y="290" type="line" smooth="yes"/>
      <point x="169" y="322"/>
      <point x="144" y="329"/>
      <point x="111" y="348" type="curve"/>
      <point x="150" y="363"/>
      <point x="176" y="370"/>
      <point x="184" y="408" type="curve" smooth="yes"/>
      <point x="201" y="504" type="line" smooth="yes"/>
      <point x="238" y="715"/>
      <point x="328" y="735"/>
    </contour>
  </outline>
</glyph>
<glyph name="cent" format="1">
  <advance width="494"/>
  <unicode hex="00A2"/>
  <outline>
    <contour>
      <point x="307" y="136" type="line"/>
      <point x="340" y="143"/>
      <point x="354" y="166" type="curve" smooth="yes"/>
      <point x="361" y="178"/>
      <point x="364" y="189"/>
      <point x="366" y="203" type="curve" smooth="yes"/>
      <point x="368" y="215" type="line"/>
      <point x="500" y="182" type="line"/>
      <point x="486" y="104"/>
      <point x="424" y="40"/>
      <point x="356" y="11" type="curve"/>
      <point x="346" y="-48" type="line"/>
      <point x="275" y="-48" type="line"/>
      <point x="282" y="-5" type="line"/>
      <point x="298" y="86" type="line"/>
    </contour>
    <contour>
      <point x="415" y="749" type="line"/>
      <point x="486" y="749" type="line"/>
      <point x="475" y="687" type="line"/>
      <point x="533" y="656"/>
      <point x="572" y="587"/>
      <point x="559" y="516" type="curve"/>
      <point x="415" y="480" type="line"/>
      <point x="417" y="495" type="line" smooth="yes"/>
      <point x="419" y="509"/>
      <point x="422" y="520"/>
      <point x="419" y="532" type="curve" smooth="yes"/>
      <point x="413" y="555"/>
      <point x="382" y="564" type="line"/>
      <point x="388" y="595" type="line"/>
      <point x="407" y="705" type="line"/>
    </contour>
    <contour>
      <point x="290" y="749" type="line"/>
      <point x="361" y="749" type="line"/>
      <point x="353" y="705" type="line"/>
      <point x="334" y="595" type="line"/>
      <point x="328" y="564" type="line"/>
      <point x="282" y="563"/>
      <point x="265" y="523"/>
      <point x="264" y="518" type="curve" smooth="yes"/>
      <point x="205" y="181" type="line" smooth="yes"/>
      <point x="204" y="176"/>
      <point x="207" y="136"/>
      <point x="253" y="136" type="curve"/>
      <point x="244" y="86" type="line"/>
      <point x="228" y="-5" type="line"/>
      <point x="221" y="-48" type="line"/>
      <point x="150" y="-48" type="line"/>
      <point x="159" y="7" type="line"/>
      <point x="75" y="40"/>
      <point x="55" y="132"/>
      <point x="64" y="181" type="curve" smooth="yes"/>
      <point x="123" y="518" type="line" smooth="yes"/>
      <point x="132" y="567"/>
      <point x="184" y="660"/>
      <point x="280" y="693" type="curve"/>
    </contour>
  </outline>
</glyph>
<glyph name="currency" format="1">
  <advance width="656"/>
  <unicode hex="00A4"/>
  <outline>
    <contour>
      <point x="145" y="540" type="line"/>
      <point x="232" y="622" type="line"/>
      <point x="296" y="555" type="line"/>
      <point x="325" y="578"/>
      <point x="364" y="595"/>
      <point x="409" y="595" type="curve" smooth="yes"/>
      <point x="415" y="595" type="line"/>
      <point x="394" y="477" type="line"/>
      <point x="388" y="477" type="line" smooth="yes"/>
      <point x="355" y="477"/>
      <point x="346" y="453"/>
      <point x="346" y="452" type="curve" smooth="yes"/>
      <point x="315" y="276" type="line" smooth="yes"/>
      <point x="314" y="273"/>
      <point x="318" y="251"/>
      <point x="348" y="251" type="curve" smooth="yes"/>
      <point x="354" y="251" type="line"/>
      <point x="333" y="133" type="line"/>
      <point x="327" y="133" type="line" smooth="yes"/>
      <point x="281" y="133"/>
      <point x="249" y="151"/>
      <point x="228" y="175" type="curve"/>
      <point x="141" y="109" type="line"/>
      <point x="85" y="190" type="line"/>
      <point x="194" y="275" type="line"/>
      <point x="226" y="455" type="line"/>
      <point x="226" y="455"/>
      <point x="226" y="456" type="curve" smooth="yes"/>
    </contour>
    <contour>
      <point x="435" y="477" type="line"/>
      <point x="456" y="595" type="line"/>
      <point x="462" y="595" type="line" smooth="yes"/>
      <point x="505" y="595"/>
      <point x="536" y="578"/>
      <point x="557" y="555" type="curve"/>
      <point x="644" y="622" type="line"/>
      <point x="701" y="540" type="line"/>
      <point x="590" y="456" type="line" smooth="yes"/>
      <point x="590" y="455"/>
      <point x="590" y="455" type="line"/>
      <point x="558" y="275" type="line"/>
      <point x="639" y="190" type="line"/>
      <point x="553" y="109" type="line"/>
      <point x="491" y="174" type="line"/>
      <point x="462" y="150"/>
      <point x="424" y="133"/>
      <point x="380" y="133" type="curve" smooth="yes"/>
      <point x="374" y="133" type="line"/>
      <point x="395" y="247" type="line"/>
      <point x="401" y="247" type="line" smooth="yes"/>
      <point x="432" y="248"/>
      <point x="441" y="272"/>
      <point x="441" y="274" type="curve" smooth="yes"/>
      <point x="473" y="451" type="line" smooth="yes"/>
      <point x="474" y="454"/>
      <point x="471" y="477"/>
      <point x="441" y="477" type="curve" smooth="yes"/>
    </contour>
  </outline>
</glyph>
<glyph name="dieresis" format="1">
  <advance width="320"/>
  <unicode hex="00A8"/>
  <outline>
    <contour>
      <point x="120" y="678" type="curve" smooth="yes"/>
      <point x="127" y="720"/>
      <point x="166" y="754"/>
      <point x="208" y="754" type="curve" smooth="yes"/>
      <point x="250" y="754"/>
      <point x="277" y="720"/>
      <point x="270" y="678" type="curve" smooth="yes"/>
      <point x="263" y="636"/>
      <point x="223" y="603"/>
      <point x="181" y="603" type="curve" smooth="yes"/>
      <point x="139" y="603"/>
      <point x="113" y="636"/>
    </contour>
    <contour>
      <point x="290" y="678" type="curve" smooth="yes"/>
      <point x="297" y="720"/>
      <point x="336" y="754"/>
      <point x="378" y="754" type="curve" smooth="yes"/>
      <point x="420" y="754"/>
      <point x="447" y="720"/>
      <point x="440" y="678" type="curve" smooth="yes"/>
      <point x="433" y="636"/>
      <point x="393" y="603"/>
      <point x="351" y="603" type="curve" smooth="yes"/>
      <point x="309" y="603"/>
      <point x="283" y="636"/>
    </contour>
  </outline>
</glyph>
<glyph name="copyright" format="1">
  <advance width="859"/>
  <unicode hex="00A9"/>
  <outline>
    <contour>
      <point x="455" y="44" type="line"/>
      <point x="602" y="51"/>
      <point x="749" y="179"/>
      <point x="779" y="332" type="curve" smooth="yes"/>
      <point x="779" y="334"/>
      <point x="780" y="337"/>
      <point x="780" y="339" type="curve" smooth="yes"/>
      <point x="811" y="516"/>
      <point x="688" y="635"/>
      <point x="559" y="636" type="curve"/>
      <point x="575" y="726" type="line"/>
      <point x="723" y="725"/>
      <point x="913" y="589"/>
      <point x="869" y="339" type="curve" smooth="yes"/>
      <point x="868" y="335"/>
      <point x="868" y="331"/>
      <point x="867" y="327" type="curve" smooth="yes"/>
      <point x="822" y="104"/>
      <point x="611" y="-43"/>
      <point x="438" y="-49" type="curve"/>
    </contour>
    <contour>
      <point x="512" y="566" type="curve"/>
      <point x="496" y="476" type="line"/>
      <point x="467" y="476"/>
      <point x="457" y="450"/>
      <point x="456" y="447" type="curve" smooth="yes"/>
      <point x="418" y="231" type="line" smooth="yes"/>
      <point x="417" y="228"/>
      <point x="419" y="203"/>
      <point x="448" y="203" type="curve"/>
      <point x="432" y="112" type="line"/>
      <point x="341" y="112"/>
      <point x="321" y="193"/>
      <point x="328" y="231" type="curve" smooth="yes"/>
      <point x="366" y="447" type="line" smooth="yes"/>
      <point x="373" y="485"/>
      <point x="421" y="566"/>
    </contour>
    <contour>
      <point x="482" y="201" type="line"/>
      <point x="504" y="207"/>
      <point x="513" y="222" type="curve" smooth="yes"/>
      <point x="517" y="229"/>
      <point x="518" y="236"/>
      <point x="520" y="245" type="curve" smooth="yes"/>
      <point x="524" y="264" type="line"/>
      <point x="606" y="232" type="line"/>
      <point x="595" y="171"/>
      <point x="526" y="112"/>
      <point x="467" y="112" type="curve"/>
    </contour>
    <contour>
      <point x="531" y="476" type="line"/>
      <point x="547" y="566" type="line"/>
      <point x="606" y="566"/>
      <point x="655" y="507"/>
      <point x="644" y="446" type="curve"/>
      <point x="550" y="413" type="line"/>
      <point x="553" y="432" type="line" smooth="yes"/>
      <point x="555" y="441"/>
      <point x="556" y="448"/>
      <point x="554" y="456" type="curve" smooth="yes"/>
      <point x="550" y="470"/>
    </contour>
    <contour>
      <point x="420" y="44" type="curve"/>
      <point x="403" y="-49" type="line"/>
      <point x="232" y="-43"/>
      <point x="75" y="104"/>
      <point x="108" y="327" type="curve" smooth="yes"/>
      <point x="109" y="331"/>
      <point x="109" y="335"/>
      <point x="110" y="339" type="curve" smooth="yes"/>
      <point x="154" y="589"/>
      <point x="392" y="725"/>
      <point x="540" y="726" type="curve"/>
      <point x="524" y="636" type="line"/>
      <point x="395" y="635"/>
      <point x="230" y="516"/>
      <point x="199" y="339" type="curve" smooth="yes"/>
      <point x="199" y="337"/>
      <point x="198" y="334"/>
      <point x="198" y="332" type="curve" smooth="yes"/>
      <point x="174" y="179"/>
      <point x="275" y="51"/>
    </contour>
  </outline>
</glyph>
<glyph name="ordfeminine" format="1">
  <advance width="227"/>
  <unicode hex="00AA"/>
  <outline>
    <contour>
      <point x="240" y="701" type="line"/>
      <point x="243" y="701" type="line" smooth="yes"/>
      <point x="289" y="701"/>
      <point x="305" y="659"/>
      <point x="301" y="639" type="curve" smooth="yes"/>
      <point x="282" y="535" type="line" smooth="yes"/>
      <point x="282" y="533"/>
      <point x="281" y="523"/>
      <point x="289" y="523" type="curve" smooth="yes"/>
      <point x="292" y="523" type="line"/>
      <point x="283" y="471" type="line"/>
      <point x="280" y="471" type="line" smooth="yes"/>
      <point x="264" y="471"/>
      <point x="252" y="476"/>
      <point x="244" y="483" type="curve"/>
      <point x="232" y="475"/>
      <point x="219" y="471"/>
      <point x="203" y="471" type="curve" smooth="yes"/>
      <point x="200" y="471" type="line"/>
      <point x="209" y="523" type="line"/>
      <point x="212" y="523" type="line" smooth="yes"/>
      <point x="224" y="523"/>
      <point x="229" y="536"/>
      <point x="229" y="537" type="curve" smooth="yes"/>
      <point x="234" y="569" type="line"/>
      <point x="213" y="559"/>
      <point x="183" y="554"/>
      <point x="176" y="551" type="curve" smooth="yes"/>
      <point x="174" y="550"/>
      <point x="172" y="547"/>
      <point x="171" y="543" type="curve" smooth="yes"/>
      <point x="170" y="537" type="line" smooth="yes"/>
      <point x="169" y="529"/>
      <point x="170" y="523"/>
      <point x="181" y="523" type="curve" smooth="yes"/>
      <point x="191" y="523" type="line"/>
      <point x="182" y="471" type="line"/>
      <point x="180" y="471" type="line" smooth="yes"/>
      <point x="137" y="471"/>
      <point x="115" y="494"/>
      <point x="120" y="520" type="curve" smooth="yes"/>
      <point x="125" y="551" type="line" smooth="yes"/>
      <point x="128" y="566"/>
      <point x="132" y="575"/>
      <point x="153" y="586" type="curve" smooth="yes"/>
      <point x="175" y="598"/>
      <point x="241" y="610"/>
      <point x="244" y="626" type="curve" smooth="yes"/>
      <point x="245" y="631" type="line" smooth="yes"/>
      <point x="247" y="641"/>
      <point x="247" y="648"/>
      <point x="233" y="649" type="curve"/>
      <point x="231" y="650" type="line"/>
    </contour>
    <contour>
      <point x="210" y="649" type="line" smooth="yes"/>
      <point x="201" y="648"/>
      <point x="194" y="643"/>
      <point x="191" y="627" type="curve" smooth="yes"/>
      <point x="190" y="623" type="line"/>
      <point x="144" y="642" type="line"/>
      <point x="145" y="644" type="line"/>
      <point x="151" y="676"/>
      <point x="189" y="701"/>
      <point x="220" y="701" type="curve" smooth="yes"/>
      <point x="223" y="701" type="line"/>
      <point x="213" y="649" type="line"/>
    </contour>
    <contour>
      <point x="102" y="430" type="line"/>
      <point x="277" y="430" type="line"/>
      <point x="265" y="362" type="line"/>
      <point x="90" y="362" type="line"/>
    </contour>
  </outline>
</glyph>
<glyph name="guillemotleft" format="1">
  <advance width="475"/>
  <unicode hex="00AB"/>
  <outline>
    <contour>
      <point x="533" y="477" type="line"/>
      <point x="511" y="352" type="line"/>
      <point x="411" y="292" type="line"/>
      <point x="488" y="224" type="line"/>
      <point x="467" y="102" type="line"/>
      <point x="284" y="259" type="line"/>
      <point x="295" y="321" type="line"/>
    </contour>
    <contour>
      <point x="322" y="477" type="line"/>
      <point x="300" y="352" type="line"/>
      <point x="200" y="292" type="line"/>
      <point x="277" y="224" type="line"/>
      <point x="256" y="102" type="line"/>
      <point x="73" y="259" type="line"/>
      <point x="84" y="321" type="line"/>
    </contour>
  </outline>
</glyph>
<glyph name="degree" format="1">
  <advance width="282"/>
  <unicode hex="00B0"/>
  <outline>
    <contour>
      <point x="128" y="583" type="curve" smooth="yes"/>
      <point x="139" y="647"/>
      <point x="200" y="698"/>
      <point x="263" y="698" type="curve" smooth="yes"/>
      <point x="327" y="698"/>
      <point x="370" y="647"/>
      <point x="359" y="583" type="curve" smooth="yes"/>
      <point x="348" y="520"/>
      <point x="287" y="468"/>
      <point x="223" y="468" type="curve" smooth="yes"/>
      <point x="160" y="468"/>
      <point x="117" y="520"/>
    </contour>
    <contour>
      <point x="205" y="583" type="curve" smooth="yes"/>
      <point x="201" y="562"/>
      <point x="215" y="545"/>
      <point x="236" y="545" type="curve" smooth="yes"/>
      <point x="258" y="545"/>
      <point x="278" y="562"/>
      <point x="282" y="583" type="curve" smooth="yes"/>
      <point x="286" y="605"/>
      <point x="272" y="622"/>
      <point x="250" y="622" type="curve" smooth="yes"/>
      <point x="229" y="622"/>
      <point x="209" y="605"/>
    </contour>
  </outline>
</glyph>
<glyph name="uni00B2" format="1">
  <advance width="245"/>
  <unicode hex="00B2"/>
  <outline>
    <contour>
      <point x="235" y="639" type="line"/>
      <point x="245" y="700" type="line"/>
      <point x="252" y="700" type="line" smooth="yes"/>
      <point x="321" y="700"/>
      <point x="332" y="643"/>
      <point x="326" y="609" type="curve" smooth="yes"/>
      <point x="317" y="560"/>
      <point x="292" y="546"/>
      <point x="263" y="527" type="curve" smooth="yes"/>
      <point x="228" y="505"/>
      <point x="210" y="493"/>
      <point x="192" y="471" type="curve"/>
      <point x="191" y="469" type="line"/>
      <point x="117" y="469" type="line"/>
      <point x="121" y="475" type="line" smooth="yes"/>
      <point x="157" y="529"/>
      <point x="204" y="553"/>
      <point x="218" y="563" type="curve" smooth="yes"/>
      <point x="241" y="580"/>
      <point x="262" y="584"/>
      <point x="266" y="608" type="curve" smooth="yes"/>
      <point x="270" y="629"/>
      <point x="261" y="638"/>
      <point x="238" y="639" type="curve" smooth="yes"/>
    </contour>
    <contour>
      <point x="296" y="451" type="line"/>
      <point x="285" y="389" type="line"/>
      <point x="103" y="389" type="line"/>
      <point x="114" y="451" type="line"/>
    </contour>
    <contour>
      <point x="214" y="638" type="line" smooth="yes"/>
      <point x="210" y="636"/>
      <point x="196" y="629"/>
      <point x="192" y="608" type="curve"/>
      <point x="192" y="604" type="line"/>
      <point x="135" y="616" type="line"/>
      <point x="135" y="619" type="line"/>
      <point x="146" y="657"/>
      <point x="180" y="695"/>
      <point x="224" y="700" type="curve"/>
      <point x="228" y="700" type="line"/>
      <point x="219" y="645" type="line"/>
      <point x="217" y="638" type="line"/>
    </contour>
  </outline>
</glyph>
<glyph name="uni00B3" format="1">
  <advance width="247"/>
  <unicode hex="00B3"/>
  <outline>
    <contour>
      <point x="188" y="623" type="line"/>
      <point x="141" y="654" type="line"/>
      <point x="144" y="657" type="line"/>
      <point x="163" y="682"/>
      <point x="193" y="701"/>
      <point x="228" y="701" type="curve" smooth="yes"/>
      <point x="231" y="701" type="line"/>
      <point x="220" y="640" type="line"/>
      <point x="217" y="640" type="line" smooth="yes"/>
      <point x="205" y="639"/>
      <point x="196" y="634"/>
      <point x="190" y="626" type="curve" smooth="yes"/>
    </contour>
    <contour>
      <point x="209" y="452" type="line" smooth="yes"/>
      <point x="225" y="452"/>
      <point x="239" y="467"/>
      <point x="242" y="483" type="curve" smooth="yes"/>
      <point x="246" y="507"/>
      <point x="242" y="516"/>
      <point x="192" y="516" type="curve" smooth="yes"/>
      <point x="188" y="516" type="line"/>
      <point x="199" y="577" type="line"/>
      <point x="203" y="577" type="line" smooth="yes"/>
      <point x="254" y="577"/>
      <point x="261" y="588"/>
      <point x="265" y="612" type="curve" smooth="yes"/>
      <point x="269" y="633"/>
      <point x="254" y="640"/>
      <point x="243" y="640" type="curve" smooth="yes"/>
      <point x="238" y="640" type="line"/>
      <point x="249" y="701" type="line"/>
      <point x="252" y="701" type="line" smooth="yes"/>
      <point x="312" y="700"/>
      <point x="334" y="650"/>
      <point x="328" y="616" type="curve" smooth="yes"/>
      <point x="321" y="578"/>
      <point x="306" y="557"/>
      <point x="291" y="547" type="curve"/>
      <point x="301" y="537"/>
      <point x="312" y="516"/>
      <point x="306" y="482" type="curve" smooth="yes"/>
      <point x="296" y="426"/>
      <point x="236" y="392"/>
      <point x="200" y="392" type="curve" smooth="yes"/>
      <point x="195" y="392" type="line"/>
      <point x="206" y="452" type="line"/>
    </contour>
    <contour>
      <point x="162" y="467" type="line" smooth="yes"/>
      <point x="166" y="459"/>
      <point x="172" y="455"/>
      <point x="184" y="454" type="curve" smooth="yes"/>
      <point x="187" y="453" type="line"/>
      <point x="176" y="392" type="line"/>
      <point x="173" y="392" type="line" smooth="yes"/>
      <point x="138" y="392"/>
      <point x="115" y="406"/>
      <point x="105" y="436" type="curve"/>
      <point x="103" y="439" type="line"/>
      <point x="161" y="470" type="line"/>
    </contour>
  </outline>
</glyph>
<glyph name="cedilla" format="1">
  <advance width="219"/>
  <unicode hex="00B8"/>
  <outline>
    <contour>
      <point x="124" y="123" type="curve"/>
      <point x="216" y="123" type="line"/>
      <point x="203" y="47"/>
      <point x="147" y="-36"/>
      <point x="20" y="-36" type="curve"/>
      <point x="36" y="55" type="line"/>
      <point x="72" y="55"/>
      <point x="114" y="68"/>
    </contour>
  </outline>
</glyph>
<glyph name="guillemotright" format="1">
  <advance width="414"/>
  <unicode hex="00BB"/>
  <outline>
    <contour>
      <point x="321" y="477" type="line"/>
      <point x="505" y="321" type="line"/>
      <point x="494" y="259" type="line"/>
      <point x="255" y="102" type="line"/>
      <point x="276" y="224" type="line"/>
      <point x="377" y="292" type="line"/>
      <point x="299" y="352" type="line"/>
    </contour>
    <contour>
      <point x="110" y="477" type="line"/>
      <point x="294" y="321" type="line"/>
      <point x="283" y="259" type="line"/>
      <point x="44" y="102" type="line"/>
      <point x="65" y="224" type="line"/>
      <point x="166" y="292" type="line"/>
      <point x="88" y="352" type="line"/>
    </contour>
  </outline>
</glyph>
<glyph name="onequarter" format="1">
  <advance width="560"/>
  <unicode hex="00BC"/>
  <outline>
    <contour>
      <point x="26" y="-2" type="line"/>
      <point x="582" y="702" type="line"/>
      <point x="658" y="702" type="line"/>
      <point x="109" y="-2" type="line"/>
    </contour>
    <contour>
      <point x="392" y="137" type="line"/>
      <point x="381" y="71" type="line"/>
      <point x="283" y="71" type="line"/>
      <point x="294" y="137" type="line"/>
      <point x="422" y="305" type="line"/>
      <point x="399" y="175" type="line"/>
      <point x="370" y="137" type="line"/>
    </contour>
    <contour>
      <point x="512" y="137" type="line"/>
      <point x="501" y="71" type="line"/>
      <point x="474" y="71" type="line"/>
      <point x="461" y="-1" type="line"/>
      <point x="393" y="-1" type="line"/>
      <point x="455" y="352" type="line"/>
      <point x="523" y="352" type="line"/>
      <point x="485" y="137" type="line"/>
    </contour>
    <contour>
      <point x="218" y="597" type="line"/>
      <point x="175" y="567" type="line"/>
      <point x="193" y="671" type="line"/>
      <point x="238" y="702" type="line"/>
      <point x="305" y="702" type="line"/>
      <point x="243" y="349" type="line"/>
      <point x="175" y="349" type="line"/>
    </contour>
  </outline>
</glyph>
<glyph name="AE" format="1">
  <advance width="727"/>
  <unicode hex="00C6"/>
  <outline>
    <contour>
      <point x="726" y="141" type="line"/>
      <point x="701" y="0" type="line"/>
      <point x="337" y="0" type="line"/>
      <point x="363" y="148" type="line"/>
      <point x="298" y="148" type="line"/>
      <point x="348" y="268" type="line"/>
      <point x="384" y="268" type="line"/>
      <point x="436" y="560" type="line"/>
      <point x="419" y="560" type="line"/>
      <point x="182" y="0" type="line"/>
      <point x="26" y="0" type="line"/>
      <point x="329" y="700" type="line"/>
      <point x="824" y="700" type="line"/>
      <point x="800" y="560" type="line"/>
      <point x="582" y="560" type="line"/>
      <point x="577" y="560" type="line"/>
      <point x="552" y="418" type="line"/>
      <point x="681" y="418" type="line"/>
      <point x="656" y="277" type="line"/>
      <point x="527" y="277" type="line"/>
      <point x="503" y="141" type="line"/>
    </contour>
  </outline>
</glyph>
<glyph name="Thorn" format="1">
  <advance width="474"/>
  <unicode hex="00DE"/>
  <outline>
    <contour>
      <point x="149" y="700" type="line"/>
      <point x="290" y="700" type="line"/>
      <point x="167" y="0" type="line"/>
      <point x="26" y="0" type="line"/>
    </contour>
    <contour>
      <point x="282" y="347" type="line"/>
      <point x="315" y="347" type="line" smooth="yes"/>
      <point x="322" y="347"/>
      <point x="366" y="348"/>
      <point x="375" y="398" type="curve" smooth="yes"/>
      <point x="384" y="449"/>
      <point x="343" y="451"/>
      <point x="334" y="451" type="curve" smooth="yes"/>
      <point x="301" y="451" type="line"/>
      <point x="325" y="590" type="line"/>
      <point x="506" y="590"/>
      <point x="539" y="516"/>
      <point x="519" y="402" type="curve" smooth="yes"/>
      <point x="494" y="259"/>
      <point x="415" y="208"/>
      <point x="258" y="208" type="curve"/>
    </contour>
  </outline>
</glyph>
<glyph name="germandbls" format="1">
  <advance width="522"/>
  <unicode hex="00DF"/>
  <outline>
    <contour>
      <point x="155" y="0" type="line"/>
      <point x="26" y="0" type="line"/>
      <point x="107" y="457" type="line" smooth="yes"/>
      <point x="121" y="531"/>
      <point x="140" y="705"/>
      <point x="350" y="705" type="curve" smooth="yes"/>
      <point x="520" y="705"/>
      <point x="507" y="575"/>
      <point x="497" y="518" type="curve" smooth="yes"/>
      <point x="477" y="405" type="line"/>
      <point x="414" y="406" type="line"/>
      <point x="379" y="400"/>
      <point x="370" y="368"/>
      <point x="369" y="361" type="curve" smooth="yes"/>
      <point x="367" y="349"/>
      <point x="368" y="326"/>
      <point x="444" y="299" type="curve" smooth="yes"/>
      <point x="491" y="282"/>
      <point x="539" y="243"/>
      <point x="524" y="160" type="curve" smooth="yes"/>
      <point x="506" y="57"/>
      <point x="420" y="0"/>
      <point x="327" y="0" type="curve" smooth="yes"/>
      <point x="199" y="0" type="line"/>
      <point x="218" y="109" type="line"/>
      <point x="346" y="109" type="line" smooth="yes"/>
      <point x="361" y="110"/>
      <point x="400" y="120"/>
      <point x="406" y="153" type="curve" smooth="yes"/>
      <point x="414" y="198"/>
      <point x="366" y="200"/>
      <point x="316" y="228" type="curve" smooth="yes"/>
      <point x="272" y="252"/>
      <point x="241" y="287"/>
      <point x="256" y="371" type="curve" smooth="yes"/>
      <point x="269" y="446"/>
      <point x="330" y="489"/>
      <point x="383" y="507" type="curve"/>
      <point x="386" y="519" type="line"/>
      <point x="395" y="572"/>
      <point x="362" y="586"/>
      <point x="328" y="586" type="curve" smooth="yes"/>
      <point x="277" y="586"/>
      <point x="253" y="554"/>
      <point x="243" y="498" type="curve" smooth="yes"/>
    </contour>
  </outline>
</glyph>
<glyph name="icircumflex" format="1">
  <advance width="174"/>
  <unicode hex="00EE"/>
  <outline>
    <contour>
      <point x="80" y="577" type="line"/>
      <point x="182" y="729" type="line"/>
      <point x="248" y="729" type="line"/>
      <point x="298" y="577" type="line"/>
      <point x="216" y="577" type="line"/>
      <point x="198" y="634" type="line"/>
      <point x="161" y="577" type="line"/>
    </contour>
    <contour>
      <point x="148" y="0" type="line"/>
      <point x="26" y="0" type="line"/>
      <point x="117" y="516" type="line"/>
      <point x="239" y="516" type="line"/>
    </contour>
  </outline>
</glyph>
<glyph name="oslash" format="1">
  <advance width="498"/>
  <unicode hex="00F8"/>
  <outline>
    <contour>
      <point x="531" y="490" type="line"/>
      <point x="574" y="430" type="line"/>
      <point x="496" y="369" type="line"/>
      <point x="456" y="141" type="line" smooth="yes"/>
      <point x="448" y="96"/>
      <point x="382" y="-1"/>
      <point x="278" y="-1" type="curve" smooth="yes"/>
      <point x="272" y="-1" type="line"/>
      <point x="293" y="117" type="line"/>
      <point x="299" y="117" type="line" smooth="yes"/>
      <point x="330" y="118"/>
      <point x="339" y="141"/>
      <point x="341" y="152" type="curve" smooth="yes"/>
      <point x="360" y="261" type="line"/>
      <point x="214" y="145" type="line"/>
      <point x="213" y="130"/>
      <point x="221" y="117"/>
      <point x="246" y="117" type="curve" smooth="yes"/>
      <point x="252" y="117" type="line"/>
      <point x="231" y="-1" type="line"/>
      <point x="225" y="-1" type="line" smooth="yes"/>
      <point x="165" y="-1"/>
      <point x="128" y="29"/>
      <point x="109" y="63" type="curve"/>
      <point x="57" y="22" type="line"/>
      <point x="14" y="82" type="line"/>
      <point x="92" y="143" type="line"/>
      <point x="133" y="376" type="line" smooth="yes"/>
      <point x="141" y="421"/>
      <point x="209" y="516"/>
      <point x="316" y="516" type="curve" smooth="yes"/>
      <point x="322" y="516" type="line"/>
      <point x="301" y="398" type="line"/>
      <point x="295" y="398" type="line" smooth="yes"/>
      <point x="262" y="398"/>
      <point x="253" y="373"/>
      <point x="251" y="363" type="curve" smooth="yes"/>
      <point x="232" y="253" type="line"/>
      <point x="379" y="370" type="line"/>
      <point x="379" y="384"/>
      <point x="374" y="398"/>
      <point x="348" y="398" type="curve" smooth="yes"/>
      <point x="342" y="398" type="line"/>
      <point x="363" y="516" type="line"/>
      <point x="369" y="516" type="line" smooth="yes"/>
      <point x="427" y="516"/>
      <point x="464" y="486"/>
      <point x="482" y="451" type="curve"/>
    </contour>
  </outline>
</glyph>
<glyph name="Lslash" format="1">
  <advance width="530"/>
  <unicode hex="0141"/>
  <outline>
    <contour>
      <point x="429" y="540" type="line"/>
      <point x="489" y="452" type="line"/>
      <point x="330" y="343" type="line"/>
      <point x="295" y="139" type="line"/>
      <point x="530" y="139" type="line"/>
      <point x="505" y="0" type="line"/>
      <point x="129" y="0" type="line"/>
      <point x="170" y="233" type="line"/>
      <point x="135" y="209" type="line"/>
      <point x="79" y="302" type="line"/>
      <point x="196" y="382" type="line"/>
      <point x="252" y="700" type="line"/>
      <point x="393" y="700" type="line"/>
      <point x="357" y="492" type="line"/>
    </contour>
  </outline>
</glyph>
<glyph name="caron" format="1">
  <advance width="270"/>
  <unicode hex="02C7"/>
  <outline>
    <contour>
      <point x="143" y="666" type="line"/>
      <point x="224" y="666" type="line"/>
      <point x="241" y="609" type="line"/>
      <point x="279" y="666" type="line"/>
      <point x="361" y="666" type="line"/>
      <point x="258" y="514" type="line"/>
      <point x="192" y="514" type="line"/>
    </contour>
  </outline>
</glyph>
<glyph name="breve" format="1">
  <advance width="244"/>
  <unicode hex="02D8"/>
  <outline>
    <contour>
      <point x="311" y="526" type="line"/>
      <point x="302" y="473"/>
      <point x="251" y="430"/>
      <point x="198" y="430" type="curve" smooth="yes"/>
      <point x="145" y="430"/>
      <point x="110" y="473"/>
      <point x="119" y="526" type="curve"/>
      <point x="183" y="526" type="line"/>
      <point x="180" y="508"/>
      <point x="191" y="494"/>
      <point x="209" y="494" type="curve" smooth="yes"/>
      <point x="227" y="494"/>
      <point x="244" y="508"/>
      <point x="247" y="526" type="curve"/>
    </contour>
  </outline>
</glyph>
<glyph name="dotaccent" format="1">
  <advance width="202"/>
  <unicode hex="02D9"/>
  <outline>
    <contour>
      <point x="146" y="678" type="curve" smooth="yes"/>
      <point x="153" y="720"/>
      <point x="192" y="754"/>
      <point x="234" y="754" type="curve" smooth="yes"/>
      <point x="276" y="754"/>
      <point x="303" y="720"/>
      <point x="296" y="678" type="curve" smooth="yes"/>
      <point x="289" y="636"/>
      <point x="249" y="603"/>
      <point x="207" y="603" type="curve" smooth="yes"/>
      <point x="165" y="603"/>
      <point x="139" y="636"/>
    </contour>
  </outline>
</glyph>
<glyph name="endash" format="1">
  <advance width="532"/>
  <unicode hex="2013"/>
  <outline>
    <contour>
      <point x="569" y="357" type="line"/>
      <point x="547" y="230" type="line"/>
      <point x="67" y="230" type="line"/>
      <point x="89" y="357" type="line"/>
    </contour>
  </outline>
</glyph>
<glyph name="perthousand" format="1">
  <advance width="897"/>
  <unicode hex="2030"/>
  <outline>
    <contour>
      <point x="810" y="352" type="line"/>
      <point x="799" y="287" type="line"/>
      <point x="797" y="287" type="line"/>
      <point x="771" y="281"/>
      <point x="760" y="233"/>
      <point x="754" y="201" type="curve" smooth="yes"/>
      <point x="749" y="171" type="line" smooth="yes"/>
      <point x="741" y="125"/>
      <point x="732" y="71"/>
      <point x="757" y="65" type="curve"/>
      <point x="758" y="65" type="line"/>
      <point x="747" y="0" type="line"/>
      <point x="745" y="0" type="line" smooth="yes"/>
      <point x="711" y="2"/>
      <point x="656" y="28"/>
      <point x="682" y="178" type="curve" smooth="yes"/>
      <point x="705" y="306"/>
      <point x="761" y="349"/>
      <point x="808" y="352" type="curve" smooth="yes"/>
    </contour>
    <contour>
      <point x="838" y="352" type="line" smooth="yes"/>
      <point x="883" y="349"/>
      <point x="926" y="307"/>
      <point x="903" y="178" type="curve" smooth="yes"/>
      <point x="877" y="28"/>
      <point x="811" y="2"/>
      <point x="777" y="0" type="curve" smooth="yes"/>
      <point x="775" y="0" type="line"/>
      <point x="786" y="65" type="line"/>
      <point x="787" y="65" type="line"/>
      <point x="814" y="71"/>
      <point x="826" y="125"/>
      <point x="834" y="171" type="curve" smooth="yes"/>
      <point x="839" y="201" type="line" smooth="yes"/>
      <point x="845" y="233"/>
      <point x="851" y="281"/>
      <point x="827" y="287" type="curve"/>
      <point x="825" y="287" type="line"/>
      <point x="836" y="352" type="line"/>
    </contour>
    <contour>
      <point x="552" y="352" type="line"/>
      <point x="541" y="287" type="line"/>
      <point x="539" y="287" type="line"/>
      <point x="513" y="281"/>
      <point x="502" y="233"/>
      <point x="496" y="201" type="curve" smooth="yes"/>
      <point x="491" y="171" type="line" smooth="yes"/>
      <point x="483" y="125"/>
      <point x="474" y="71"/>
      <point x="499" y="65" type="curve"/>
      <point x="500" y="65" type="line"/>
      <point x="489" y="0" type="line"/>
      <point x="487" y="0" type="line" smooth="yes"/>
      <point x="453" y="2"/>
      <point x="398" y="28"/>
      <point x="424" y="178" type="curve" smooth="yes"/>
      <point x="447" y="306"/>
      <point x="503" y="349"/>
      <point x="550" y="352" type="curve" smooth="yes"/>
    </contour>
    <contour>
      <point x="580" y="352" type="line" smooth="yes"/>
      <point x="625" y="349"/>
      <point x="668" y="307"/>
      <point x="645" y="178" type="curve" smooth="yes"/>
      <point x="619" y="28"/>
      <point x="553" y="2"/>
      <point x="519" y="0" type="curve" smooth="yes"/>
      <point x="517" y="0" type="line"/>
      <point x="528" y="65" type="line"/>
      <point x="529" y="65" type="line"/>
      <point x="556" y="71"/>
      <point x="568" y="125"/>
      <point x="576" y="171" type="curve" smooth="yes"/>
      <point x="581" y="201" type="line" smooth="yes"/>
      <point x="587" y="233"/>
      <point x="593" y="281"/>
      <point x="569" y="287" type="curve"/>
      <point x="567" y="287" type="line"/>
      <point x="578" y="352" type="line"/>
    </contour>
    <contour>
      <point x="246" y="703" type="line"/>
      <point x="234" y="637" type="line"/>
      <point x="233" y="637" type="line"/>
      <point x="207" y="631"/>
      <point x="197" y="583"/>
      <point x="191" y="551" type="curve" smooth="yes"/>
      <point x="186" y="522" type="line" smooth="yes"/>
      <point x="178" y="476"/>
      <point x="169" y="421"/>
      <point x="194" y="415" type="curve"/>
      <point x="195" y="415" type="line"/>
      <point x="184" y="350" type="line"/>
      <point x="182" y="351" type="line"/>
      <point x="148" y="353"/>
      <point x="93" y="378"/>
      <point x="119" y="528" type="curve" smooth="yes"/>
      <point x="142" y="656"/>
      <point x="198" y="699"/>
      <point x="245" y="702" type="curve"/>
    </contour>
    <contour>
      <point x="275" y="702" type="line"/>
      <point x="320" y="699"/>
      <point x="362" y="657"/>
      <point x="339" y="528" type="curve" smooth="yes"/>
      <point x="313" y="378"/>
      <point x="248" y="353"/>
      <point x="214" y="351" type="curve"/>
      <point x="212" y="350" type="line"/>
      <point x="223" y="415" type="line"/>
      <point x="224" y="415" type="line"/>
      <point x="251" y="421"/>
      <point x="262" y="476"/>
      <point x="270" y="522" type="curve" smooth="yes"/>
      <point x="275" y="551" type="line" smooth="yes"/>
      <point x="281" y="583"/>
      <point x="287" y="631"/>
      <point x="263" y="637" type="curve"/>
      <point x="262" y="637" type="line"/>
      <point x="274" y="703" type="line"/>
    </contour>
    <contour>
      <point x="67" y="0" type="line"/>
      <point x="620" y="700" type="line"/>
      <point x="693" y="700" type="line"/>
      <point x="147" y="0" type="line"/>
    </contour>
  </outline>
</glyph>
<glyph name="fraction" format="1">
  <advance width="560"/>
  <unicode hex="2044"/>
  <outline>
    <contour>
      <point x="26" y="-2" type="line"/>
      <point x="582" y="702" type="line"/>
      <point x="658" y="702" type="line"/>
      <point x="109" y="-2" type="line"/>
    </contour>
  </outline>
</glyph>
<glyph name="TradeMarkSign" format="1">
  <advance width="403"/>
  <unicode hex="2122"/>
  <outline>
    <contour>
      <point x="288" y="700" type="line"/>
      <point x="280" y="653" type="line"/>
      <point x="235" y="653" type="line"/>
      <point x="205" y="484" type="line"/>
      <point x="157" y="484" type="line"/>
      <point x="187" y="653" type="line"/>
      <point x="141" y="653" type="line"/>
      <point x="149" y="700" type="line"/>
    </contour>
    <contour>
      <point x="453" y="700" type="line"/>
      <point x="500" y="700" type="line"/>
      <point x="462" y="484" type="line"/>
      <point x="415" y="484" type="line"/>
    </contour>
    <contour>
      <point x="311" y="700" type="line"/>
      <point x="348" y="700" type="line"/>
      <point x="380" y="564" type="line"/>
      <point x="425" y="636" type="line"/>
      <point x="429" y="636" type="line"/>
      <point x="410" y="529" type="line"/>
      <point x="383" y="484" type="line"/>
      <point x="350" y="484" type="line"/>
      <point x="306" y="669" type="line"/>
    </contour>
    <contour>
      <point x="273" y="484" type="line"/>
      <point x="299" y="628" type="line"/>
      <point x="302" y="628" type="line"/>
      <point x="328" y="522" type="line"/>
      <point x="321" y="484" type="line"/>
    </contour>
  </outline>
</glyph>
<glyph name="HKD" format="1">
  <advance width="843"/>
  <unicode hex="5713"/>
  <outline>
    <contour>
      <point x="249" y="698" type="line"/>
      <point x="292" y="698" type="line"/>
      <point x="255" y="488" type="line"/>
      <point x="212" y="488" type="line"/>
      <point x="227" y="573" type="line"/>
      <point x="218" y="573" type="line"/>
      <point x="225" y="614" type="line"/>
      <point x="234" y="614" type="line"/>
    </contour>
    <contour>
      <point x="321" y="698" type="line"/>
      <point x="364" y="698" type="line"/>
      <point x="327" y="488" type="line"/>
      <point x="284" y="488" type="line"/>
    </contour>
    <contour>
      <point x="406" y="698" type="line"/>
      <point x="448" y="698" type="line"/>
      <point x="407" y="611" type="line"/>
      <point x="412" y="488" type="line"/>
      <point x="370" y="488" type="line"/>
      <point x="365" y="611" type="line"/>
    </contour>
    <contour>
      <point x="209" y="614" type="line"/>
      <point x="202" y="573" type="line"/>
      <point x="193" y="573" type="line"/>
      <point x="178" y="488" type="line"/>
      <point x="136" y="488" type="line"/>
      <point x="173" y="698" type="line"/>
      <point x="215" y="698" type="line"/>
      <point x="200" y="614" type="line"/>
    </contour>
    <contour>
      <point x="527" y="-47" type="line"/>
      <point x="456" y="-47" type="line"/>
      <point x="466" y="13" type="line"/>
      <point x="403" y="45"/>
      <point x="374" y="116"/>
      <point x="380" y="158" type="curve"/>
      <point x="515" y="203" type="line"/>
      <point x="507" y="147"/>
      <point x="557" y="127"/>
      <point x="557" y="127" type="curve"/>
    </contour>
    <contour>
      <point x="781" y="682" type="line"/>
      <point x="838" y="649"/>
      <point x="863" y="580"/>
      <point x="863" y="553" type="curve"/>
      <point x="725" y="510" type="line"/>
      <point x="728" y="557"/>
      <point x="690" y="568"/>
      <point x="690" y="568" type="curve"/>
      <point x="722" y="750" type="line"/>
      <point x="793" y="750" type="line"/>
    </contour>
    <contour>
      <point x="667" y="750" type="line"/>
      <point x="635" y="568" type="line"/>
      <point x="613" y="562"/>
      <point x="588" y="537"/>
      <point x="584" y="513" type="curve" smooth="yes"/>
      <point x="579" y="486"/>
      <point x="594" y="469"/>
      <point x="615" y="454" type="curve"/>
      <point x="588" y="302" type="line"/>
      <point x="570" y="309"/>
      <point x="554" y="316"/>
      <point x="540" y="323" type="curve" smooth="yes"/>
      <point x="475" y="357"/>
      <point x="431" y="403"/>
      <point x="450" y="508" type="curve" smooth="yes"/>
      <point x="466" y="599"/>
      <point x="528" y="652"/>
      <point x="584" y="679" type="curve"/>
      <point x="596" y="750" type="line"/>
    </contour>
    <contour>
      <point x="665" y="428" type="line"/>
      <point x="689" y="418"/>
      <point x="713" y="407"/>
      <point x="734" y="394" type="curve" smooth="yes"/>
      <point x="789" y="358"/>
      <point x="848" y="311"/>
      <point x="830" y="209" type="curve" smooth="yes"/>
      <point x="815" y="122"/>
      <point x="744" y="44"/>
      <point x="663" y="12" type="curve"/>
      <point x="653" y="-47" type="line"/>
      <point x="582" y="-47" type="line"/>
      <point x="589" y="-3" type="line"/>
      <point x="612" y="127" type="line"/>
      <point x="637" y="130"/>
      <point x="679" y="150"/>
      <point x="688" y="203" type="curve" smooth="yes"/>
      <point x="695" y="241"/>
      <point x="671" y="263"/>
      <point x="639" y="280" type="curve"/>
    </contour>
  </outline>
</glyph>
<glyph name="fl" format="1">
  <advance width="483"/>
  <unicode hex="FB02"/>
  <outline>
    <contour>
      <point x="457" y="0" type="line"/>
      <point x="331" y="0" type="line"/>
      <point x="433" y="579" type="line"/>
      <point x="346" y="579" type="line" smooth="yes"/>
      <point x="318" y="578"/>
      <point x="309" y="555"/>
      <point x="308" y="552" type="curve" smooth="yes"/>
      <point x="302" y="515" type="line"/>
      <point x="368" y="516" type="line"/>
      <point x="348" y="400" type="line"/>
      <point x="282" y="400" type="line"/>
      <point x="211" y="0" type="line"/>
      <point x="89" y="0" type="line"/>
      <point x="160" y="400" type="line"/>
      <point x="97" y="400" type="line"/>
      <point x="117" y="516" type="line"/>
      <point x="180" y="516" type="line"/>
      <point x="186" y="552" type="line" smooth="yes"/>
      <point x="194" y="597"/>
      <point x="263" y="695"/>
      <point x="366" y="696" type="curve" smooth="yes"/>
      <point x="580" y="696" type="line"/>
    </contour>
  </outline>
</glyph>
